<svg width="72" height="72" viewBox="0 0 72 72" fill="none" xmlns="http://www.w3.org/2000/svg">
<path d="M23.0929 44H18V20H52V44H39.5116H23.0929Z" fill="#D6C5F5"/>
<path d="M58.5448 49.9184C59.9008 44.1732 56.3427 38.4166 50.5975 37.0606C44.8523 35.7046 39.0957 39.2628 37.7398 45.0079C36.3838 50.7531 39.9419 56.5097 45.6871 57.8657C51.4322 59.2217 57.1888 55.6635 58.5448 49.9184Z" fill="#D6C5F5"/>
<path d="M49.5101 41.3646C49.5851 41.292 49.6449 41.2052 49.6861 41.1091C49.7273 41.013 49.749 40.9097 49.75 40.8052C49.7509 40.7006 49.7311 40.5969 49.6917 40.5001C49.6523 40.4033 49.594 40.3154 49.5204 40.2414C49.4467 40.1674 49.3591 40.1089 49.2626 40.0693C49.1662 40.0297 49.0628 40.0097 48.9586 40.0105C48.8543 40.0114 48.7513 40.0331 48.6555 40.0743C48.5598 40.1155 48.4731 40.1755 48.4007 40.2506L45.2544 43.4057L42.1093 40.2506C42.0374 40.1733 41.9508 40.1112 41.8545 40.0682C41.7582 40.0251 41.6542 40.002 41.5488 40.0001C41.4434 39.9983 41.3387 40.0177 41.241 40.0573C41.1432 40.0969 41.0545 40.1559 40.9799 40.2307C40.9054 40.3054 40.8466 40.3945 40.8071 40.4925C40.7677 40.5906 40.7483 40.6956 40.7501 40.8014C40.752 40.9071 40.7751 41.0114 40.818 41.108C40.8609 41.2045 40.9227 41.2915 40.9998 41.3636L44.1429 44.5197L40.9977 47.6747C40.8591 47.824 40.7836 48.0214 40.7872 48.2254C40.7908 48.4294 40.8732 48.6241 41.017 48.7683C41.1608 48.9126 41.3548 48.9952 41.5582 48.9988C41.7616 49.0024 41.9584 48.9267 42.1072 48.7876L45.2544 45.6326L48.3996 48.7887C48.5484 48.9278 48.7452 49.0035 48.9486 48.9999C49.152 48.9963 49.346 48.9137 49.4898 48.7694C49.6336 48.6251 49.716 48.4305 49.7196 48.2265C49.7232 48.0225 49.6477 47.825 49.5091 47.6758L46.366 44.5197L49.5101 41.3646Z" fill="black"/>
<path d="M32.5 48.625H13.5885C13.0577 48.625 12.625 48.2036 12.625 47.6868V26.5H14.5519V46.7485H32.5V48.625Z" fill="black"/>
<path d="M45.625 26.5H43.75V31H45.625V26.5Z" fill="black"/>
<path d="M47.6808 27.25H10.9443C10.4241 27.25 10 26.8254 10 26.3045V16.9455C10 16.4247 10.4241 16 10.9443 16H47.6808C48.201 16 48.625 16.4247 48.625 16.9455V26.3045C48.625 26.8254 48.201 27.25 47.6808 27.25ZM11.8886 25.359H46.7365V17.8911H11.8886V25.359Z" fill="black"/>
<path d="M30.25 26.5H28.375V47.875H30.25V26.5Z" fill="black"/>
<path d="M45.4375 56.125C39.1279 56.125 34 50.9074 34 44.5C34 38.0927 39.1335 32.875 45.4375 32.875C51.7415 32.875 56.875 38.0927 56.875 44.5C56.875 50.9074 51.7415 56.125 45.4375 56.125ZM45.4375 34.7672C40.1591 34.7672 35.8617 39.1351 35.8617 44.5C35.8617 49.865 40.1591 54.2328 45.4375 54.2328C50.7159 54.2328 55.0133 49.865 55.0133 44.5C55.0133 39.1351 50.7159 34.7672 45.4375 34.7672Z" fill="black"/>
</svg>
