<svg width="72" height="72" viewBox="0 0 72 72" fill="none" xmlns="http://www.w3.org/2000/svg">
<path d="M53.5448 30.9184C54.9008 25.1732 51.3427 19.4166 45.5975 18.0606C39.8523 16.7046 34.0957 20.2628 32.7398 26.0079C31.3838 31.7531 34.9419 37.5097 40.6871 38.8657C46.4322 40.2216 52.1888 36.6635 53.5448 30.9184Z" fill="#D6C5F5"/>
<path d="M46.9046 48.8546C46.9046 47.1882 45.5974 45.836 43.9865 45.836H35.6281L31.7228 43.3223C30.4373 42.5985 29 42.217 27.5409 42.217C24.7367 42.217 22.1061 43.6085 20.4626 45.9538L15.2501 53.3937L23.6031 62.0344L26.7165 58.8362L45.093 60.8617L61.5006 46.4139C63.3067 44.523 62.0158 41.3137 59.4449 41.3137C58.8645 41.3137 58.3058 41.4988 57.8285 41.8355L46.7093 49.9543L46.5466 50.0721L46.91 48.849L46.9046 48.8546Z" fill="#D6C5F5"/>
<path d="M12.9798 50.7213L11.4828 49.659L16.7914 42.4719C18.6309 39.9787 21.6084 38.4881 24.746 38.4881C26.3867 38.4881 28.0107 38.8946 29.447 39.6643L33.2475 41.9787H41.495C43.6438 41.9787 45.3894 43.6968 45.3894 45.8053C45.3894 47.9137 43.6383 49.6319 41.495 49.6319H30.3861V47.8216H41.495C42.6274 47.8216 43.5444 46.9164 43.5444 45.8107C43.5444 44.705 42.6219 43.7998 41.495 43.7998H32.9824C32.8112 43.7998 32.6399 43.751 32.4963 43.6643L28.519 41.2361C27.3976 40.6345 26.0773 40.3093 24.746 40.3093C22.1939 40.3093 19.7799 41.518 18.2829 43.5451L12.9743 50.7322L12.9798 50.7213Z" fill="black"/>
<path d="M21.2905 59.2034L19.9595 57.9554L22.9009 54.8491C23.0981 54.642 23.3774 54.5384 23.6622 54.5657L41.8255 56.4894L58.0935 42.7126C58.7289 42.0695 58.7125 41.1866 58.4605 40.5926C58.2085 39.9986 57.5951 39.3664 56.6091 39.3664C56.2093 39.3664 55.8259 39.4863 55.5027 39.7152L44.1205 47.7099L43.0634 46.2222L54.451 38.222C55.0919 37.7806 55.8368 37.5463 56.6091 37.5463C58.1866 37.5463 59.5451 38.4455 60.1531 39.8951C60.7611 41.3447 60.4488 42.936 59.3424 44.0532L42.7183 58.1352C42.5266 58.2987 42.2801 58.3696 42.0281 58.3478L23.9251 56.4295L21.296 59.2088L21.2905 59.2034Z" fill="black"/>
<path d="M9.94371 46.7963L8.65723 48.0828L22.6354 62.0609L23.9218 60.7744L9.94371 46.7963Z" fill="black"/>
<path d="M14.5628 58.5063L13.2714 59.7879L16.0532 62.5911L17.3446 61.3095L14.5628 58.5063Z" fill="black"/>
<path d="M39.4051 31.8952H39.3859C39.0847 31.8952 38.7964 31.7525 38.5978 31.5257L34.0872 26.2752L35.7018 24.8556L39.4371 29.2051L45.7161 22.4767L47.2731 23.9611L40.1868 31.5581C39.9817 31.772 39.6998 31.8952 39.4051 31.8952Z" fill="black"/>
<path d="M40.6801 38.4881C33.9256 38.4881 28.436 32.9926 28.436 26.2441C28.436 19.4955 33.9315 14 40.6801 14C47.4286 14 52.9241 19.4955 52.9241 26.2441C52.9241 32.9926 47.4286 38.4881 40.6801 38.4881ZM40.6801 15.993C35.0295 15.993 30.429 20.5934 30.429 26.2441C30.429 31.8947 35.0295 36.4952 40.6801 36.4952C46.3307 36.4952 50.9312 31.8947 50.9312 26.2441C50.9312 20.5934 46.3307 15.993 40.6801 15.993Z" fill="black"/>
</svg>
