<svg width="72" height="72" viewBox="0 0 72 72" fill="none" xmlns="http://www.w3.org/2000/svg">
<path d="M19.2796 47.0461H15.5132V22.8684H40.6579V47.0461H31.4221H19.2796Z" fill="#D6C5F5"/>
<path d="M60 44.1392H58.1533V36.8625L52.4693 28.5809H43.7941V44.1448H41.9474V27.6589C41.9474 27.151 42.3621 26.7368 42.8708 26.7368H52.9559C53.26 26.7368 53.5475 26.8859 53.7189 27.1399L59.8397 36.0619C59.9447 36.2165 60 36.3987 60 36.5809V44.1448V44.1392Z" fill="black"/>
<path d="M37.7946 45.1119H28.5309V43.2432H36.8654V20.8743H13.5031V43.2432H16.3517V45.1119H12.5739C12.0621 45.1119 11.6448 44.6923 11.6448 44.1775V19.9344C11.6448 19.4196 12.0621 19 12.5739 19H37.7946C38.3065 19 38.7237 19.4196 38.7237 19.9344V44.1775C38.7237 44.6923 38.3065 45.1119 37.7946 45.1119Z" fill="black"/>
<path d="M52.9971 37.6918L50.7212 34.4019H47.1053V32.5395H51.2085C51.5131 32.5395 51.7955 32.69 51.9671 32.941L54.5198 36.6324L53.0026 37.6974L52.9971 37.6918Z" fill="black"/>
<path d="M22.1217 51.2369C19.7228 51.2369 17.7698 49.2839 17.7698 46.8849C17.7698 44.486 19.7228 42.5329 22.1217 42.5329C24.5207 42.5329 26.4737 44.486 26.4737 46.8849C26.4737 49.2839 24.5207 51.2369 22.1217 51.2369ZM22.1217 44.4182C20.7614 44.4182 19.6551 45.5246 19.6551 46.8849C19.6551 48.2453 20.7614 49.3516 22.1217 49.3516C23.4821 49.3516 24.5884 48.2453 24.5884 46.8849C24.5884 45.5246 23.4821 44.4182 22.1217 44.4182Z" fill="black"/>
<path d="M50.329 51.2369C48.0189 51.2369 46.1382 49.2839 46.1382 46.8849C46.1382 44.486 48.0189 42.5329 50.329 42.5329C52.6391 42.5329 54.5198 44.486 54.5198 46.8849C54.5198 49.2839 52.6391 51.2369 50.329 51.2369ZM50.329 44.4182C49.019 44.4182 47.9537 45.5246 47.9537 46.8849C47.9537 48.2453 49.019 49.3516 50.329 49.3516C51.6389 49.3516 52.7043 48.2453 52.7043 46.8849C52.7043 45.5246 51.6389 44.4182 50.329 44.4182Z" fill="black"/>
<path d="M59.033 50.9145H11.6448V52.5264H59.033V50.9145Z" fill="black"/>
<path d="M56.7764 58.0066H51.22V56.3948H56.7764V58.0066ZM45.6581 58.0066H40.1017V56.3948H45.6581V58.0066ZM34.5453 58.0066H28.9889V56.3948H34.5453V58.0066ZM23.427 58.0066H17.8706V56.3948H23.427V58.0066ZM12.3087 58.0066H11V56.3948H12.3087V58.0066Z" fill="black"/>
</svg>
