<svg width="14" height="12" viewBox="0 0 14 12" fill="none" xmlns="http://www.w3.org/2000/svg">
<path d="M1.40001 0.399994C0.958178 0.399994 0.600006 0.758166 0.600006 1.19999C0.600006 1.64182 0.958178 1.99999 1.40001 1.99999H10.2C10.6418 1.99999 11 1.64182 11 1.19999C11 0.758166 10.6418 0.399994 10.2 0.399994H1.40001Z" fill="#333333"/>
<path d="M1.40001 3.59999C0.958178 3.59999 0.600006 3.95817 0.600006 4.39999C0.600006 4.84182 0.958178 5.19999 1.40001 5.19999H5.40001C5.84183 5.19999 6.20001 4.84182 6.20001 4.39999C6.20001 3.95817 5.84183 3.59999 5.40001 3.59999H1.40001Z" fill="#333333"/>
<path d="M1.40001 6.79999C0.958178 6.79999 0.600006 7.15817 0.600006 7.59999C0.600006 8.04182 0.958178 8.39999 1.40001 8.39999H4.60001C5.04183 8.39999 5.40001 8.04182 5.40001 7.59999C5.40001 7.15817 5.04183 6.79999 4.60001 6.79999H1.40001Z" fill="#333333"/>
<path d="M9.4 10.8C9.4 11.2418 9.75818 11.6 10.2 11.6C10.6418 11.6 11 11.2418 11 10.8L11 6.33137L12.0343 7.36568C12.3467 7.6781 12.8533 7.6781 13.1657 7.36568C13.4781 7.05326 13.4781 6.54673 13.1657 6.23431L10.7657 3.83431C10.6157 3.68428 10.4122 3.59999 10.2 3.59999C9.98783 3.59999 9.78435 3.68428 9.63432 3.83431L7.23432 6.23431C6.9219 6.54673 6.9219 7.05326 7.23432 7.36568C7.54674 7.6781 8.05327 7.6781 8.36569 7.36568L9.40001 6.33137L9.4 10.8Z" fill="#333333"/>
</svg>
