<svg width="120" height="120" viewBox="0 0 120 120" fill="none" xmlns="http://www.w3.org/2000/svg">
<g id="No Categories Yet 1" clip-path="url(#clip0_6531_65931)">
<g id="Layer 1">
<g id="Clip path group">
<mask id="mask0_6531_65931" style="mask-type:luminance" maskUnits="userSpaceOnUse" x="0" y="0" width="120" height="120">
<g id="clippath">
<path id="Vector" d="M60 120C93.1371 120 120 93.1371 120 60C120 26.8629 93.1371 0 60 0C26.8629 0 0 26.8629 0 60C0 93.1371 26.8629 120 60 120Z" fill="white"/>
</g>
</mask>
<g mask="url(#mask0_6531_65931)">
<g id="Group">
<path id="Vector_2" d="M60 120C93.1371 120 120 93.1371 120 60C120 26.8629 93.1371 0 60 0C26.8629 0 0 26.8629 0 60C0 93.1371 26.8629 120 60 120Z" fill="#F2F2F2"/>
<g id="Group_2">
<path id="Vector_3" d="M100.031 33.7656H38.4504L23.2217 48.9944V130.751C23.2217 134.326 26.1201 137.224 29.6954 137.224H100.03C103.605 137.224 106.504 134.326 106.504 130.751V40.2402C106.504 36.6649 103.605 33.7665 100.03 33.7665L100.031 33.7656Z" fill="#DADADA"/>
<path id="Vector_4" d="M100.031 138.035H29.6966C25.6801 138.035 22.4121 134.767 22.4121 130.751V48.9946C22.4121 48.7795 22.4975 48.573 22.6494 48.4211L37.8781 33.1923C38.03 33.0404 38.2366 32.9551 38.4517 32.9551H100.032C104.049 32.9551 107.317 36.2231 107.317 40.2396V130.75C107.317 134.766 104.049 138.034 100.032 138.034L100.031 138.035ZM24.0337 49.33V130.751C24.0337 133.874 26.5746 136.414 29.6966 136.414H100.031C103.154 136.414 105.694 133.873 105.694 130.751V40.2404C105.694 37.1175 103.154 34.5776 100.031 34.5776H38.7871L24.0337 49.3309V49.33Z" fill="#9D9D9C"/>
<g id="Group_3">
<path id="Vector_5" d="M101.641 43.5687V125.325C101.641 128.9 98.743 131.799 95.1678 131.799H24.8321C21.2568 131.799 18.3584 128.9 18.3584 125.325V34.8145C18.3584 31.2393 21.2568 28.3408 24.8321 28.3408H86.4127L101.641 43.5696V43.5687Z" fill="white"/>
<path id="Vector_6" d="M101.642 43.5687H92.8877C89.3125 43.5687 86.4141 40.6703 86.4141 37.095V28.3408L101.643 43.5696L101.642 43.5687Z" fill="#DADADA"/>
</g>
<g id="Group_4">
<path id="Vector_7" d="M95.1672 132.61H24.8323C20.8158 132.61 17.5479 129.342 17.5479 125.325V34.8138C17.5479 30.7973 20.8158 27.5293 24.8323 27.5293H86.413C86.6281 27.5293 86.8346 27.6146 86.9865 27.7666L102.215 42.9953C102.367 43.1472 102.453 43.3538 102.453 43.5688V125.325C102.453 129.342 99.1846 132.61 95.1681 132.61H95.1672ZM24.8323 29.1509C21.7094 29.1509 19.1695 31.6917 19.1695 34.8138V125.324C19.1695 128.447 21.7103 130.987 24.8323 130.987H95.1672C98.2901 130.987 100.83 128.446 100.83 125.324V43.9043L86.0767 29.1509H24.8323Z" fill="#9D9D9C"/>
<path id="Vector_8" d="M101.642 44.3791H92.888C88.8715 44.3791 85.6035 41.1111 85.6035 37.0946V28.3404C85.6035 28.0127 85.8007 27.7165 86.1037 27.5911C86.4066 27.4656 86.7557 27.5347 86.987 27.7669L102.216 42.9948C102.448 43.2269 102.517 43.5751 102.392 43.8781C102.266 44.1811 101.971 44.3783 101.642 44.3783V44.3791ZM87.2243 30.2975V37.0946C87.2243 40.2175 89.7651 42.7575 92.8872 42.7575H99.6843L87.2243 30.2975Z" fill="#9D9D9C"/>
</g>
<path id="Vector_9" d="M60.0458 82.0916C69.4599 82.0916 77.0916 74.4599 77.0916 65.0458C77.0916 55.6317 69.4599 48 60.0458 48C50.6317 48 43 55.6317 43 65.0458C43 74.4599 50.6317 82.0916 60.0458 82.0916Z" fill="#F2ECFC"/>
<path id="Vector_10" d="M58.5 61.5H66M58.5 65.5H63M58.5 69.5H66M56 69.5C56 69.6326 55.9473 69.7598 55.8536 69.8536C55.7598 69.9473 55.6326 70 55.5 70C55.3674 70 55.2402 69.9473 55.1464 69.8536C55.0527 69.7598 55 69.6326 55 69.5C55 69.3674 55.0527 69.2402 55.1464 69.1464C55.2402 69.0527 55.3674 69 55.5 69C55.6326 69 55.7598 69.0527 55.8536 69.1464C55.9473 69.2402 56 69.3674 56 69.5ZM56 65.5C56 65.6326 55.9473 65.7598 55.8536 65.8536C55.7598 65.9473 55.6326 66 55.5 66C55.3674 66 55.2402 65.9473 55.1464 65.8536C55.0527 65.7598 55 65.6326 55 65.5C55 65.3674 55.0527 65.2402 55.1464 65.1464C55.2402 65.0527 55.3674 65 55.5 65C55.6326 65 55.7598 65.0527 55.8536 65.1464C55.9473 65.2402 56 65.3674 56 65.5ZM56 61.5C56 61.6326 55.9473 61.7598 55.8536 61.8536C55.7598 61.9473 55.6326 62 55.5 62C55.3674 62 55.2402 61.9473 55.1464 61.8536C55.0527 61.7598 55 61.6326 55 61.5C55 61.3674 55.0527 61.2402 55.1464 61.1464C55.2402 61.0527 55.3674 61 55.5 61C55.6326 61 55.7598 61.0527 55.8536 61.1464C55.9473 61.2402 56 61.3674 56 61.5Z" stroke="#7C43DF" stroke-width="1.5" stroke-linecap="round"/>
</g>
</g>
</g>
</g>
<g id="Group_5">
<path id="Vector_11" d="M87.1214 91.7432H32.879C31.331 91.7432 30.0762 92.998 30.0762 94.546C30.0762 96.094 31.331 97.3488 32.879 97.3488H87.1214C88.6694 97.3488 89.9243 96.094 89.9243 94.546C89.9243 92.998 88.6694 91.7432 87.1214 91.7432Z" fill="#F2ECFC"/>
<path id="Vector_12" d="M73.98 95.357H33.1467C32.6987 95.357 32.3359 94.9942 32.3359 94.5462C32.3359 94.0981 32.6987 93.7354 33.1467 93.7354H73.98C74.4281 93.7354 74.7908 94.0981 74.7908 94.5462C74.7908 94.9942 74.4281 95.357 73.98 95.357Z" fill="#7C43DF"/>
</g>
</g>
</g>
<defs>
<clipPath id="clip0_6531_65931">
<rect width="120" height="120" fill="white"/>
</clipPath>
</defs>
</svg>
