<svg width="72" height="72" viewBox="0 0 72 72" fill="none" xmlns="http://www.w3.org/2000/svg">
<path d="M37.5647 58C47.1939 58 55 50.2967 55 40.7941C55 31.2916 47.1939 23.5882 37.5647 23.5882C27.9354 23.5882 20.1294 31.2916 20.1294 40.7941C20.1294 50.2967 27.9354 58 37.5647 58Z" fill="#D6C5F5"/>
<path d="M43.8957 29.5529L43.5294 27.8382L47.9247 26.8944L49.1805 22.2118L50.8706 22.668L49.3375 28.3836L43.8957 29.5529Z" fill="black"/>
<path d="M34.1235 55.2471C24.1327 55.2471 16 47.1144 16 37.1235C16 27.1327 24.1327 19 34.1235 19C39.8267 19 45.2674 21.7332 48.6749 26.3143L47.2954 27.3386C44.1659 23.1281 39.3634 20.714 34.1235 20.714C25.0798 20.714 17.7192 28.0746 17.7192 37.1184C17.7192 46.1621 25.0798 53.5227 34.1235 53.5227C43.1673 53.5227 50.5279 46.1621 50.5279 37.1184H52.2471C52.2471 47.1144 44.1144 55.2419 34.1235 55.2419V55.2471Z" fill="black"/>
<path d="M43.9882 38.7294H34.0138L27.4706 29.6603L28.8617 28.6353L34.8896 36.9916H43.9882V38.7294Z" fill="black"/>
</svg>
