<svg width="20" height="20" viewBox="0 0 20 20" fill="none" xmlns="http://www.w3.org/2000/svg">
<g clip-path="url(#clip0_3936_74)">
<path d="M14.66 15.66C13.352 16.9694 11.6305 17.7848 9.78879 17.9673C7.94705 18.1498 6.09901 17.6881 4.55952 16.6608C3.02004 15.6335 1.88436 14.1042 1.34597 12.3335C0.807587 10.5628 0.899804 8.66015 1.60691 6.94979C2.31402 5.23944 3.59227 3.82716 5.22389 2.95357C6.85551 2.07998 8.73954 1.79914 10.555 2.15888C12.3705 2.51863 14.005 3.4967 15.1802 4.92647C16.3554 6.35624 16.9985 8.14925 17 10H15C15.0012 8.61181 14.521 7.26614 13.6413 6.1923C12.7615 5.11846 11.5366 4.38291 10.1753 4.11097C8.81404 3.83904 7.40056 4.04755 6.17577 4.70098C4.95098 5.35442 3.99066 6.41233 3.45845 7.69446C2.92625 8.97659 2.85509 10.4036 3.25711 11.7323C3.65913 13.061 4.50944 14.2092 5.66315 14.9813C6.81687 15.7533 8.20259 16.1014 9.58419 15.9662C10.9658 15.8311 12.2578 15.221 13.24 14.24L14.66 15.66ZM12 10H20L16 14L12 10Z" fill="#949494"/>
</g>
<defs>
<clipPath id="clip0_3936_74">
<rect width="20" height="20" fill="white"/>
</clipPath>
</defs>
</svg>
